# xmcd CD database file
#
# Track frame offsets:
#	150
#	21197
#	35585
#	36055
#	51155
#	69010
#	83235
#	113850
#	133642
#	152737
#	167717
#	181572
#	182437
#	196312
#
# Disc length: 2842 seconds
#
# Revision: 9
# Processed by: cddbd v1.4PL0 Copyright (c) Steve Scherf et al.
# Submitted via: CDex 1.40Release
#
DISCID=aa0b180e
DTITLE=Luscious Jackson - Fever In Fever Out
DYEAR=1996
DGENRE=Polka
TTITLE0=Naked Eye
TTITLE1=Don't Look Back
TTITLE2=Door
TTITLE3=Mood Swing
TTITLE4=Under Your Skin
TTITLE5=Electric
TTITLE6=Take a Ride
TTITLE7=Water Your Garden
TTITLE8=Soothe Yourself
TTITLE9=Why Do I Lie?
TTITLE10=One Thing
TTITLE11=Parade
TTITLE12=Faith
TTITLE13=Stardust
EXTD=YEAR: 1996 ID3G: 75
EXTT0=
EXTT1=
EXTT2=
EXTT3=
EXTT4=
EXTT5=
EXTT6=
EXTT7=
EXTT8=
EXTT9=
EXTT10=
EXTT11=
EXTT12=
EXTT13=
PLAYORDER=
